<svg width="18" height="28" viewBox="0 0 18 28" fill="none" xmlns="http://www.w3.org/2000/svg">
<path d="M4.53137 27.75C6.99812 27.75 9.00012 25.748 9.00012 23.2812V18.8125H4.53137C2.06462 18.8125 0.0626221 20.8145 0.0626221 23.2812C0.0626221 25.748 2.06462 27.75 4.53137 27.75Z" fill="#0ACF83"/>
<path d="M0.0626221 14.3438C0.0626221 11.877 2.06462 9.875 4.53137 9.875H9.00012V18.8125H4.53137C2.06462 18.8125 0.0626221 16.8105 0.0626221 14.3438Z" fill="#A259FF"/>
<path d="M0.0626221 5.40625C0.0626221 2.9395 2.06462 0.9375 4.53137 0.9375H9.00012V9.875H4.53137C2.06462 9.875 0.0626221 7.873 0.0626221 5.40625Z" fill="#F24E1E"/>
<path d="M9.00012 0.9375H13.4689C15.9356 0.9375 17.9376 2.9395 17.9376 5.40625C17.9376 7.873 15.9356 9.875 13.4689 9.875H9.00012V0.9375Z" fill="#FF7262"/>
<path d="M17.9376 14.3438C17.9376 16.8105 15.9356 18.8125 13.4689 18.8125C11.0021 18.8125 9.00012 16.8105 9.00012 14.3438C9.00012 11.877 11.0021 9.875 13.4689 9.875C15.9356 9.875 17.9376 11.877 17.9376 14.3438Z" fill="#1ABCFE"/>
</svg>
