<svg width="28" height="19" viewBox="0 0 28 19" fill="none" xmlns="http://www.w3.org/2000/svg">
<path d="M3.14618 12.538C3.14618 13.5656 3.3708 14.3544 3.66461 14.8317C4.04972 15.4568 4.62408 15.7222 5.20967 15.7222C5.96485 15.7222 6.65579 15.5341 7.98724 13.6857C9.0542 12.2043 10.3108 10.1249 11.1565 8.82127L12.5887 6.61268C13.5836 5.07885 14.7351 3.3738 16.0555 2.21804C17.1336 1.27466 18.2961 0.75061 19.4662 0.75061C21.4309 0.75061 23.3022 1.89329 24.7344 4.03638C26.3018 6.3834 27.0626 9.33979 27.0626 12.3905C27.0626 14.2043 26.7065 15.5369 26.1003 16.5897C25.5149 17.6078 24.3736 18.6252 22.4537 18.6252V15.7217C24.0976 15.7217 24.5078 14.2056 24.5078 12.4706C24.5078 9.9981 23.9334 7.2543 22.6681 5.2937C21.7703 3.90303 20.6066 3.05332 19.3264 3.05332C17.9417 3.05332 16.8275 4.10165 15.5752 5.97027C14.9094 6.96325 14.226 8.17322 13.4586 9.53864L12.6138 11.0407C10.917 14.0611 10.4871 14.7487 9.63855 15.8836C8.15144 17.8711 6.88142 18.6247 5.20967 18.6247C3.22637 18.6247 1.9723 17.7627 1.19556 16.4638C0.561561 15.4054 0.250122 14.0166 0.250122 12.4342L3.14618 12.538Z" fill="#0081FB"/>
<path d="M2.53369 4.24071C3.86143 2.18655 5.77758 0.75 7.97528 0.75C9.24799 0.75 10.5135 1.12807 11.8345 2.2109C13.2797 3.39449 14.8201 5.3446 16.7418 8.55722L17.4309 9.70982C19.0943 12.4912 20.0406 13.9221 20.5946 14.5968C21.3068 15.4633 21.8057 15.7217 22.4538 15.7217C24.0977 15.7217 24.5078 14.2056 24.5078 12.4705L27.0627 12.39C27.0627 14.2038 26.7065 15.5364 26.1004 16.5892C25.5149 17.6073 24.3736 18.6247 22.4538 18.6247C21.2602 18.6247 20.2029 18.3645 19.0337 17.2573C18.1352 16.4076 17.0839 14.8981 16.2755 13.5412L13.8708 9.50962C12.6644 7.48635 11.5572 5.97777 10.917 5.29456C10.2279 4.55982 9.34211 3.67269 7.92856 3.67269C6.78456 3.67269 5.81295 4.47844 4.99993 5.71096L2.53369 4.24071Z" fill="url(#paint0_linear_1_700)"/>
<path d="M7.9285 3.67269C6.7845 3.67269 5.8129 4.47844 4.99987 5.71096C3.85014 7.45253 3.14674 10.0466 3.14674 12.5378C3.14674 13.5654 3.37136 14.3542 3.66517 14.8315L1.19556 16.4636C0.561561 15.4053 0.250122 14.0164 0.250122 12.434C0.250122 9.55629 1.03709 6.55695 2.53363 4.24071C3.86138 2.18655 5.77752 0.75 7.97522 0.75L7.9285 3.67269Z" fill="url(#paint1_linear_1_700)"/>
<defs>
<linearGradient id="paint0_linear_1_700" x1="5.4204" y1="15.9508" x2="23.8039" y2="17.7056" gradientUnits="userSpaceOnUse">
<stop stop-color="#0064E1"/>
<stop offset="0.4" stop-color="#0064E1"/>
<stop offset="0.83" stop-color="#0073EE"/>
<stop offset="1" stop-color="#0082FB"/>
</linearGradient>
<linearGradient id="paint1_linear_1_700" x1="5.79188" y1="13.7582" x2="5.79188" y2="6.92657" gradientUnits="userSpaceOnUse">
<stop stop-color="#0082FB"/>
<stop offset="1" stop-color="#0064E0"/>
</linearGradient>
</defs>
</svg>
